<svg width="622" height="622" viewBox="0 0 622 622" fill="none" xmlns="http://www.w3.org/2000/svg">
<path d="M205.836 10.1622C230.271 9.23724 259.613 10.0422 284.425 10.0422L330.085 9.91523C376.039 9.90823 405.871 11.6052 442.197 45.0952C467.604 68.5602 482.536 101.237 483.646 135.804C484.385 156.216 483.506 176.983 483.793 197.425C483.83 200.028 483.871 203.091 483.708 205.661C483.964 212.261 484.003 219.449 483.854 226.082C483.295 250.897 484.862 276.137 484.109 300.877C484.193 309.762 484.222 318.647 484.195 327.532L500.445 314.939C508.007 308.506 522.753 297.852 522.671 286.949C522.575 274.308 521.291 253.435 540.219 254.748C543.678 255.003 546.868 256.707 549.003 259.441C555.296 267.376 553.217 291.677 553.199 303.155C566.986 303.091 584.206 300.883 595.034 311.218C603.843 319.626 602.931 327.562 603.721 338.374C605.213 358.782 603.487 386.817 577.517 390.775C567.054 393.596 551.936 389.955 541.41 392.468C532.718 394.542 524.837 401.454 517.318 406.28C501.959 416.139 479.207 421.571 461.841 413.822C456.721 420.088 451.077 427.207 445.133 432.665C425.218 450.949 396.848 465.629 369.614 467.722C350.421 468.19 331.926 468.152 312.732 468.099C305.503 468.08 290.665 467.629 283.985 468.227C270.443 468.391 255.055 468.535 241.621 468.148C220.211 467.436 198.606 468.731 177.187 468.04C172.427 467.886 167.605 467.526 162.85 467.692C139.387 466.048 120.605 455.623 101.198 444.108L100.546 444.353C99.9427 448.799 100.563 454.819 100.574 459.388C100.605 472.493 95.1357 484.668 84.8687 492.921C76.9097 499.577 61.7367 504.642 51.5197 501.318C32.8577 498.639 20.8307 482.76 18.3477 464.87C18.2827 463.815 18.2317 462.759 18.1927 461.703C17.5267 441.935 18.1877 417.951 18.1937 397.748L18.1347 369.045C17.8967 339.76 16.8127 322.215 38.2317 299.347C42.6237 295.232 44.7167 293.626 49.9227 290.637C49.2707 269 49.7627 244.692 49.7697 222.897C49.7787 195.335 49.3327 166.518 49.9127 139.02C50.4477 103.753 65.2787 70.2142 91.0077 46.0872C99.8077 37.6612 109.751 30.5142 120.543 24.8592C150.11 9.16623 173.783 9.42424 205.836 10.1622Z" fill="url(#paint0_linear_10_48)"/>
<path d="M205.836 10.1622C230.271 9.23724 259.613 10.0422 284.425 10.0422L330.085 9.91523C376.039 9.90823 405.871 11.6052 442.197 45.0952C467.604 68.5602 482.536 101.237 483.646 135.804C484.385 156.216 483.506 176.983 483.793 197.425C483.83 200.028 483.871 203.091 483.708 205.661C482.756 204.104 481.846 199.56 481.082 198.708C475.338 192.651 467.839 186.686 461.197 181.507C443.435 167.657 425.788 153.785 406.983 141.381C402.602 138.491 397.436 132.647 392.922 129.172C382.764 121.35 372.704 113.37 362.516 105.577L333.243 82.8692C330.105 80.4712 326.894 78.5282 323.644 76.3922C323.121 76.0482 321.095 73.2892 320.195 72.5962L262.607 28.9462C256.408 24.2292 247.074 16.0122 240.382 12.2422C235.163 9.30123 210.307 12.1902 205.836 10.1622Z" fill="url(#paint1_linear_10_48)"/>
<path d="M38.2317 299.347C39.5817 299.414 40.5417 299.211 41.5437 300.588C44.6077 304.8 44.8017 311.758 46.4147 316.725C47.1497 318.991 48.6437 318.349 48.9197 319.797C49.5687 323.197 48.3007 324.323 49.6287 327.905C50.3387 360.122 49.8117 378.226 67.8857 408.377C71.7507 414.826 78.1377 421.433 80.8717 425.753C87.3357 432.813 93.6257 438.296 101.198 444.108L100.546 444.353C99.9427 448.799 100.563 454.819 100.574 459.388C100.605 472.493 95.1357 484.668 84.8687 492.921C76.9097 499.577 61.7367 504.642 51.5197 501.318C32.8577 498.639 20.8307 482.76 18.3477 464.87C18.2827 463.815 18.2317 462.759 18.1927 461.703C17.5267 441.935 18.1877 417.951 18.1937 397.748L18.1347 369.045C17.8967 339.76 16.8127 322.215 38.2317 299.347Z" fill="url(#paint2_linear_10_48)"/>
<path d="M18.3477 464.87C20.2507 461.109 18.0577 462.269 19.7337 460.969C19.7987 461.18 19.8587 461.394 19.9277 461.604C21.1117 465.18 46.7567 495.918 51.4107 500.634L51.5197 501.318C32.8577 498.639 20.8307 482.76 18.3477 464.87Z" fill="#3A49CE"/>
<path d="M80.8717 425.753C87.3357 432.813 93.6257 438.296 101.198 444.108L100.546 444.353C96.8037 442.637 81.0467 429.721 80.8717 425.753Z" fill="#0B112F"/>
<path d="M500.445 314.939C508.007 308.506 522.753 297.852 522.671 286.949C522.575 274.308 521.291 253.435 540.219 254.748C543.678 255.003 546.868 256.707 549.003 259.441C555.296 267.376 553.217 291.677 553.199 303.155C566.986 303.091 584.206 300.883 595.034 311.218C603.843 319.626 602.931 327.562 603.721 338.374C605.213 358.782 603.487 386.817 577.517 390.775C578.518 389.929 578.591 389.884 579.369 388.841C578.947 388.407 578.473 387.898 578.242 387.334C576.416 382.866 572.37 381.575 569.404 378.521C564.538 373.51 559.617 368.115 554.211 363.626C548.298 359.292 542.049 352.88 536.036 348.933C527.24 343.162 520.87 337.35 513.556 329.786C508.744 324.81 504.546 320.692 500.445 314.939Z" fill="url(#paint3_linear_10_48)"/>
<path d="M461.841 413.822C480.012 384.408 484.909 362.717 483.758 328.34C483.549 322.105 483.052 306.856 484.109 300.877C484.193 309.762 484.222 318.647 484.195 327.532L500.445 314.939C504.546 320.692 508.744 324.81 513.556 329.786C520.87 337.35 527.24 343.162 536.036 348.933C542.049 352.88 548.298 359.292 554.211 363.626C559.617 368.115 564.538 373.51 569.404 378.521C572.37 381.575 576.416 382.866 578.242 387.334C578.473 387.898 578.947 388.407 579.369 388.841C578.591 389.884 578.518 389.929 577.517 390.775C567.054 393.596 551.936 389.955 541.41 392.468C532.718 394.542 524.837 401.454 517.318 406.28C501.959 416.139 479.207 421.571 461.841 413.822Z" fill="url(#paint4_linear_10_48)"/>
<path d="M38.2317 299.347C42.6237 295.232 44.7167 293.626 49.9227 290.637C49.8757 302.581 50.0807 316.059 49.6287 327.905C48.3007 324.323 49.5687 323.197 48.9197 319.797C48.6437 318.349 47.1497 318.991 46.4147 316.725C44.8017 311.758 44.6077 304.8 41.5437 300.588C40.5417 299.211 39.5817 299.414 38.2317 299.347Z" fill="#0B112F"/>
<path d="M120.69 316.824C106.22 303.194 100.18 285.533 101.058 266.053C102.093 243.1 99.2726 216.548 102.191 194.137C103.077 186.87 105.05 179.776 108.042 173.094C115.985 154.744 130.99 140.37 149.665 133.221C165.131 127.373 188.955 129.176 205.906 129.155L275.236 129.107L329.975 129.126C354.869 129.101 370.86 127.249 394.279 137.918C395.644 137.365 395.145 137.33 396.424 137.503L396.708 135.896C399.134 135.86 411.554 146.404 412.201 149.334L411.72 149.611C410.434 148.266 409.213 146.538 407.661 146.087L407.008 147.069C429.537 167.293 433.89 192.243 432.256 221.376C430.822 246.936 438.317 291.307 419.04 311.183C413.666 321.532 396.42 331.692 385.597 334.817C366.762 340.256 343.454 338.661 324.012 338.645L253.704 338.64L200.248 338.682C188.408 338.7 174.763 339.086 163.16 337.773C150.723 336.366 127.815 327.668 120.69 316.824Z" fill="url(#paint5_linear_10_48)"/>
<path d="M120.69 316.824C123.165 317.686 127.365 320.171 129.728 321.548C153.454 335.385 183.215 332.22 209.905 332.167L278.228 332.142L331.512 332.185C348.53 332.233 367.104 333.014 383.723 329.62C393.196 327.729 402.121 323.732 409.839 317.923C412.739 315.764 415.907 312.787 419.04 311.183C413.666 321.532 396.42 331.692 385.597 334.817C366.762 340.256 343.454 338.661 324.012 338.645L253.704 338.64L200.248 338.682C188.408 338.7 174.763 339.086 163.16 337.773C150.723 336.366 127.815 327.668 120.69 316.824Z" fill="url(#paint6_linear_10_48)"/>
<path d="M394.279 137.918C395.644 137.365 395.145 137.33 396.424 137.503L396.708 135.896C399.134 135.86 411.554 146.404 412.201 149.334L411.72 149.611C410.434 148.266 409.213 146.538 407.661 146.087L407.008 147.069C403.188 143.626 398.588 140.746 394.279 137.918Z" fill="#47BEDF"/>
<path d="M179.972 224.368C196.549 221.984 211.913 233.513 214.259 250.096C216.605 266.679 205.042 282.016 188.453 284.324C171.918 286.625 156.641 275.107 154.303 258.578C151.965 242.048 163.447 226.745 179.972 224.368Z" fill="#FFFFFE"/>
<path d="M346.841 224.374C363.369 223.209 377.737 235.608 379.002 252.129C380.268 268.65 367.956 283.093 351.443 284.458C334.788 285.836 320.194 273.395 318.917 256.732C317.641 240.068 330.17 225.55 346.841 224.374Z" fill="#FFFFFE"/>
<path d="M162.85 467.692C167.605 467.526 172.427 467.886 177.187 468.04C198.606 468.731 220.211 467.436 241.621 468.148C241.344 492.127 242.12 516.443 241.782 540.432C241.632 551.081 242.518 567.936 240.97 577.719C243.342 584.331 242.42 587.159 244.158 593.471C242.134 594.045 239.093 594.793 237.332 595.853C233.565 598.12 232.464 600.609 228.107 601.973C210.961 615.284 189.344 616.383 173.584 600.11C168.807 595.155 165.493 588.976 164.009 582.256C161.65 571.966 162.298 535.32 162.457 523.944L162.85 467.692Z" fill="url(#paint7_linear_10_48)"/>
<path d="M240.97 577.719C243.342 584.331 242.42 587.159 244.158 593.471C242.134 594.045 239.093 594.793 237.332 595.853C233.565 598.12 232.464 600.609 228.107 601.973C236.11 593.73 238.583 589.12 240.97 577.719Z" fill="#0B112F"/>
<path d="M283.985 468.227C290.665 467.629 305.503 468.08 312.732 468.099C331.926 468.152 350.421 468.19 369.614 467.722C368.564 491.581 370.011 515.787 369.305 539.617C368.737 553.34 370.913 568.318 367.831 581.71C360.749 612.48 321.31 623.315 300.293 598.811C287.31 583.674 289.641 570.092 289.664 551.389L290.208 494.768C290.251 486.685 290.581 476.521 290.081 468.589L283.985 468.227Z" fill="url(#paint8_linear_10_48)"/>
<defs>
<linearGradient id="paint0_linear_10_48" x1="107.759" y1="447.868" x2="367.834" y2="108.836" gradientUnits="userSpaceOnUse">
<stop stop-color="#2F32B6"/>
<stop offset="1" stop-color="#48BFDE"/>
</linearGradient>
<linearGradient id="paint1_linear_10_48" x1="355.004" y1="108.608" x2="418.455" y2="27.1175" gradientUnits="userSpaceOnUse">
<stop stop-color="#49BFDE"/>
<stop offset="1" stop-color="#4AD7E3"/>
</linearGradient>
<linearGradient id="paint2_linear_10_48" x1="96.8213" y1="365.639" x2="3.67031" y2="444.758" gradientUnits="userSpaceOnUse">
<stop stop-color="#0B1F3E"/>
<stop offset="1" stop-color="#3A4ACD"/>
</linearGradient>
<linearGradient id="paint3_linear_10_48" x1="534.839" y1="349.666" x2="585.365" y2="292.903" gradientUnits="userSpaceOnUse">
<stop stop-color="#3A86C9"/>
<stop offset="1" stop-color="#4ADEE7"/>
</linearGradient>
<linearGradient id="paint4_linear_10_48" x1="466.792" y1="417.136" x2="543.528" y2="347.928" gradientUnits="userSpaceOnUse">
<stop stop-color="#270F90"/>
<stop offset="1" stop-color="#3C87CF"/>
</linearGradient>
<linearGradient id="paint5_linear_10_48" x1="265.801" y1="331.794" x2="267.2" y2="129.048" gradientUnits="userSpaceOnUse">
<stop stop-color="#080808"/>
<stop offset="1" stop-color="#303030"/>
</linearGradient>
<linearGradient id="paint6_linear_10_48" x1="268.033" y1="340.331" x2="268.869" y2="312.338" gradientUnits="userSpaceOnUse">
<stop stop-color="#413E3F"/>
<stop offset="1" stop-color="#434C58"/>
</linearGradient>
<linearGradient id="paint7_linear_10_48" x1="203.051" y1="467.829" x2="199.933" y2="611.164" gradientUnits="userSpaceOnUse">
<stop stop-color="#1A2970"/>
<stop offset="1" stop-color="#3C46DA"/>
</linearGradient>
<linearGradient id="paint8_linear_10_48" x1="327.956" y1="467.974" x2="332.47" y2="611.155" gradientUnits="userSpaceOnUse">
<stop stop-color="#182B6D"/>
<stop offset="1" stop-color="#3D45DB"/>
</linearGradient>
</defs>
</svg>
