<svg version="1.1" xmlns="http://www.w3.org/2000/svg" viewBox="0 0 512 512">
<path fill="#4285F4" d="
M317.025146,277.834625
	C284.883606,277.889740 252.742081,277.948639 220.600555,277.997742
	C210.940384,278.012482 201.275238,277.800903 191.620972,278.040131
	C169.265991,278.593933 149.080795,271.918396 130.948257,259.310120
	C107.312370,242.875229 92.338593,220.021591 87.335548,191.925735
	C81.962410,161.751434 87.868935,133.084229 106.513290,108.183456
	C123.023331,86.133202 145.333817,72.033745 172.434036,67.363571
	C185.682587,65.080444 199.545837,66.364418 213.364532,66.359253
	C206.283829,68.952972 202.191971,74.514915 201.966888,81.842995
	C201.717010,89.979340 206.860031,94.187157 212.505844,97.902298
	C203.455185,98.313316 194.868393,98.676285 186.279922,98.994019
	C170.683029,99.571037 156.932053,105.389946 145.355957,115.362686
	C126.468414,131.634186 116.958359,152.190536 118.919647,177.681915
	C120.746643,201.427917 132.151138,219.397690 151.053726,232.941315
	C163.769547,242.052124 178.495071,245.783722 193.893204,245.903351
	C231.852600,246.198257 269.815857,245.981140 307.777435,246.035324
	C310.855591,246.039719 313.933014,246.544296 317.366333,246.894577
	C326.063660,248.984161 330.434753,258.540985 327.932495,267.100433
	C326.270874,272.784393 321.642639,275.257782 317.025146,277.834625
z"/>
<path fill="#34A853" d="
M317.486755,277.899780
	C321.642639,275.257782 326.270874,272.784393 327.932495,267.100433
	C330.434753,258.540985 326.063660,248.984161 317.632263,246.588074
	C320.977203,245.803848 324.403961,245.158432 327.847717,245.048889
	C340.233124,244.654831 351.568695,240.658234 361.554962,233.774246
	C385.105621,217.539749 397.064758,195.337021 395.098511,166.146866
	C394.265961,153.787292 390.499176,142.544159 383.796967,132.407776
	C368.730804,109.621986 346.917450,98.488007 319.946686,98.109589
	C284.293152,97.609344 248.628708,97.889282 212.968948,97.833878
	C206.860031,94.187157 201.717010,89.979340 201.966888,81.842995
	C202.191971,74.514915 206.283829,68.952972 213.833649,66.423737
	C253.726669,66.110176 293.409393,65.199318 333.031372,66.360519
	C353.379486,66.956848 371.831360,75.525406 387.971680,88.422249
	C408.220062,104.601616 421.194672,125.294113 426.208344,150.650024
	C430.152618,170.597870 428.919250,190.427719 421.671448,209.570801
	C414.881927,227.503311 403.950500,242.426804 389.031311,254.693680
	C375.194305,266.070709 359.428558,273.068604 342.211487,276.629120
	C334.367188,278.251343 326.050690,277.590332 317.486755,277.899780
z"/>
<path fill="#FBBC04" d="
M143.804718,332.000000
	C135.044479,332.000000 126.758728,332.000000 118.239532,332.000000
	C118.239532,360.120483 118.239532,387.832458 118.239532,415.999908
	C127.537933,415.999908 136.650208,415.980591 145.762375,416.005707
	C153.744110,416.027740 159.676956,422.331696 160.080872,430.355804
	C160.469040,438.067230 157.909149,443.805054 150.743546,447.022400
	C149.180069,447.724396 147.289139,447.947754 145.546219,447.959076
	C133.556534,448.036987 121.566078,448.017944 109.575943,447.994843
	C97.425133,447.971405 86.014290,436.598175 86.007072,424.463776
	C85.987053,390.824646 85.987389,357.185547 86.006821,323.546417
	C86.013832,311.406769 97.414322,300.028961 109.558983,300.005219
	C121.715645,299.981445 133.872467,299.973175 146.029068,300.009735
	C153.531174,300.032288 159.673904,306.571289 160.073563,314.124481
	C160.490021,321.995453 158.010468,327.976379 150.482224,331.083038
	C148.607651,331.856659 146.356995,331.718872 143.804718,332.000000
z"/>
<path fill="#EA4335" d="
M255.884491,310.000000
	C263.035797,310.105560 269.000763,314.439026 270.828705,320.533081
	C272.871307,327.342773 270.017151,335.496857 264.694641,339.748535
	C255.203552,347.330109 245.933365,355.188141 236.568176,362.927399
	C232.393921,366.376892 228.213135,369.818542 223.788269,373.467438
	C231.354401,379.789032 238.647980,385.896576 245.956955,391.985626
	C252.890823,397.762207 259.893768,403.457153 266.766327,409.305511
	C271.947540,413.714539 272.144104,420.929443 270.191010,427.152161
	C268.006470,434.112305 262.908936,436.444397 255.401306,437.152649
	C247.632263,437.885498 243.272797,432.671600 238.346710,428.686829
	C222.267242,415.679962 206.490753,402.298737 190.588135,389.073029
	C177.674805,378.333405 180.469482,366.110443 191.448761,357.166382
	C200.721649,349.612366 209.951370,342.004333 219.134811,334.341827
	C227.831253,327.085724 236.229889,319.448608 245.226105,312.591187
	C247.795731,310.632477 251.989792,310.804810 255.884491,310.000000
z"/>
<path fill="#EA4335" d="
M346.642639,340.268555
	C339.028137,336.066650 338.085663,329.238342 339.140930,322.121063
	C339.915009,316.900085 343.110535,312.633270 348.376923,310.950104
	C354.587097,308.965302 361.614899,309.599945 366.431396,313.779602
	C377.707428,323.564789 389.394714,332.875000 400.870483,342.431549
	C407.564911,348.006378 414.124359,353.743500 420.829651,359.304962
	C432.918823,369.331879 427.943329,382.469055 418.569885,389.830353
	C409.405334,397.027618 400.481628,404.534668 391.529968,411.998993
	C382.685638,419.373871 374.069824,427.028381 365.102203,434.247711
	C359.257111,438.953217 346.714478,438.646088 341.555267,430.965851
	C336.955322,424.118256 337.813019,413.087250 345.539032,407.032806
	C354.822998,399.757507 363.805786,392.097412 372.904358,384.586212
	C377.204132,381.036591 381.469879,377.445770 386.098297,373.583893
	C372.908783,362.427948 359.927032,351.447754 346.642639,340.268555
z"/>
<path fill="#4285F4" d="
M199.530396,154.002167
	C214.630234,157.228363 217.447052,172.818207 210.827820,183.467041
	C207.790588,188.353241 197.306152,191.654938 190.730515,189.872055
	C183.901474,188.020477 178.383942,180.909332 177.936600,174.289215
	C177.241547,164.003143 181.766068,157.160660 189.406082,154.976608
	C192.477493,154.098587 195.855698,154.293701 199.530396,154.002167
z"/>
<path fill="#4285F4" d="
M302.000031,171.112488
	C301.555420,162.254608 309.326294,152.971375 321.734375,153.830063
	C330.053284,154.405762 338.215820,161.856750 338.088715,170.644226
	C337.991180,177.387787 336.843323,183.240570 330.598969,187.098618
	C323.270508,191.626480 315.899353,191.301544 308.914062,186.877274
	C303.512817,183.456299 301.580872,177.898590 302.000031,171.112488
z"/>
<path fill="none" d="
M212.505844,97.902306
	C248.628708,97.889282 284.293152,97.609344 319.946686,98.109589
	C346.917450,98.488007 368.730804,109.621986 383.796967,132.407776
	C390.499176,142.544159 394.265961,153.787292 395.098511,166.146866
	C397.064758,195.337021 385.105621,217.539749 361.554962,233.774246
	C351.568695,240.658234 340.233124,244.654831 327.847717,245.048889
	C324.403961,245.158432 320.977203,245.803848 317.276733,246.509949
	C313.933014,246.544296 310.855591,246.039719 307.777435,246.035324
	C269.815857,245.981140 231.852600,246.198257 193.893204,245.903351
	C178.495071,245.783722 163.769547,242.052124 151.053726,232.941315
	C132.151138,219.397690 120.746643,201.427917 118.919647,177.681915
	C116.958359,152.190536 126.468414,131.634186 145.355957,115.362686
	C156.932053,105.389946 170.683029,99.571037 186.279922,98.994019
	C194.868393,98.676285 203.455185,98.313316 212.505844,97.902306
z"/>
</svg>
